<svg xmlns="http://www.w3.org/2000/svg" width="682.667" height="682.667" preserveAspectRatio="xMidYMid meet" version="1.0" viewBox="0 0 512 512"><metadata>Created by potrace 1.11, written by Peter Selinger 2001-2013</metadata><g fill="#000" stroke="none"><path d="M2365 5114 c-422 -48 -672 -122 -1005 -296 -439 -228 -830 -619 -1058 -1058 -279 -535 -363 -1086 -256 -1670 125 -681 519 -1270 1119 -1674 214 -144 563 -293 825 -351 265 -58 555 -79 785 -56 633 65 1155 309 1590 745 170 171 249 269 357 441 208 331 333 683 379 1065 16 130 17 472 1 601 -102 843 -616 1584 -1368 1972 -85 45 -113 46 -156 8 -27 -24 -33 -36 -33 -69 0 -51 20 -73 105 -119 176 -97 296 -178 440 -300 379 -320 661 -787 770 -1278 46 -205 54 -285 53 -505 0 -219 -13 -358 -35 -371 -27 -18 -117 -48 -189 -63 -77 -17 -405 -43 -414 -34 -3 3 -10 33 -16 68 -23 147 -129 260 -269 290 -40 8 -319 10 -1030 8 l-975 -3 -55 -27 c-105 -51 -185 -156 -197 -258 -3 -26 -9 -54 -13 -61 -7 -10 -69 -10 -322 -1 -499 19 -782 65 -1090 178 l-96 36 -7 106 c-26 370 65 808 241 1162 279 561 774 997 1350 1189 245 81 423 115 674 128 124 6 125 6 158 39 44 44 44 84 -2 130 l-34 34 -98 -1 c-55 -1 -112 -4 -129 -5z m1632 -2870 c15 -12 37 -36 48 -55 19 -33 20 -52 20 -529 -1 -551 1 -536 -68 -579 -34 -21 -37 -21 -1003 -21 -750 1 -974 3 -991 13 -12 7 -34 28 -48 47 l-25 34 0 506 0 507 30 41 c18 26 42 45 62 51 20 6 409 9 990 8 955 -2 957 -2 985 -23z m-3482 -224 c288 -69 677 -110 1053 -110 l152 0 0 -275 0 -275 -27 -6 c-16 -3 -44 -10 -63 -14 -43 -10 -172 -27 -309 -40 -257 -25 -748 -1 -777 38 -24 31 -132 246 -167 332 -52 127 -126 370 -127 417 0 8 24 4 73 -13 39 -14 126 -38 192 -54z m4325 -66 c0 -36 -109 -319 -169 -438 l-76 -151 -75 -7 c-41 -4 -114 -4 -162 -1 l-88 6 0 267 0 267 148 7 c141 6 293 25 357 45 36 11 65 13 65 5z m-432 -804 l43 0 -82 -101 c-359 -438 -915 -746 -1493 -826 -145 -20 -457 -22 -596 -5 -569 72 -1092 344 -1461 757 -59 66 -107 121 -106 122 1 1 65 -3 142 -7 214 -14 638 13 800 50 65 15 73 13 80 -22 20 -95 113 -199 213 -240 l57 -23 945 -3 c628 -2 968 1 1013 8 90 14 154 47 210 110 42 47 87 138 87 177 0 13 8 15 53 9 28 -3 71 -6 95 -6z" transform="translate(0.000000,512.000000) scale(0.100000,-0.100000)"/><path d="M3238 4967 c-49 -45 -45 -119 8 -153 66 -44 154 1 154 79 0 83 -102 129 -162 74z" transform="translate(0.000000,512.000000) scale(0.100000,-0.100000)"/><path d="M2015 3703 c-232 -71 -345 -332 -241 -558 68 -149 256 -247 416 -217 159 29 275 130 325 281 28 85 18 202 -24 284 -36 71 -85 127 -146 165 -92 58 -227 77 -330 45z m200 -202 c108 -49 148 -190 82 -290 -30 -45 -113 -91 -164 -91 -101 0 -202 100 -203 201 0 46 44 133 81 160 59 42 139 50 204 20z" transform="translate(0.000000,512.000000) scale(0.100000,-0.100000)"/><path d="M3712 3704 c-104 -28 -204 -112 -249 -210 -72 -158 -42 -334 78 -453 123 -122 293 -151 454 -78 95 44 174 136 210 246 28 85 18 202 -24 284 -90 178 -278 263 -469 211z m193 -203 c108 -49 148 -190 82 -290 -30 -45 -113 -91 -164 -91 -101 0 -202 100 -203 201 0 46 44 133 81 160 59 42 139 50 204 20z" transform="translate(0.000000,512.000000) scale(0.100000,-0.100000)"/></g></svg>